<svg width="20" height="20" fill="none" xmlns="http://www.w3.org/2000/svg"><path d="M15.833 16.667H4.167a3.343 3.343 0 0 1-3.334-3.334V6.668c0-1.833 1.5-3.333 3.334-3.333h11.666c1.834 0 3.334 1.5 3.334 3.333v6.667c0 1.833-1.5 3.333-3.334 3.333Z" fill="#3D6396"/><path d="M9.831 10c-.401 0-.87-.133-1.205-.334L5.278 7.723c-.335-.134-.469-.603-.268-.871.134-.335.603-.47.87-.268l3.35 1.943a1.15 1.15 0 0 0 1.138 0l3.348-1.943c.335-.201.737-.067.938.268.2.335.067.737-.268.938l-3.348 1.943c-.335.133-.804.268-1.206.268Z" fill="#fff"/></svg>